<svg width="846" height="345" viewBox="0 0 846 345" fill="none" xmlns="http://www.w3.org/2000/svg">
<path d="M2.22724 221.574C-13.5953 223.12 128.805 209.207 128.805 209.207" stroke="black" stroke-width="15"/>
<line x1="135.531" y1="326.575" x2="270.063" y2="326.575" stroke="black" stroke-width="15"/>
<line y1="-7.5" x2="46.1219" y2="-7.5" transform="matrix(0.583373 0.812204 -0.850367 0.52619 162.438 296.615)" stroke="black" stroke-width="15"/>
<line y1="-7.5" x2="46.1219" y2="-7.5" transform="matrix(0.583373 0.812204 -0.850367 0.52619 202.797 296.615)" stroke="black" stroke-width="15"/>
<path d="M34.669 281.833C271.685 258.486 266.735 245.826 216.25 159.26" stroke="black" stroke-width="15"/>
<path d="M180.093 189.109C109.94 210.611 81.1188 233.118 45.5619 289.003" stroke="black" stroke-width="15"/>
<line y1="-7.5" x2="76.9932" y2="-7.5" transform="matrix(0.873657 0.486542 -0.542881 0.83981 1 221.694)" stroke="black" stroke-width="15"/>
<path d="M276.789 153.016C320.711 306.958 140.054 315.356 81.7189 277.884" stroke="black" stroke-width="15"/>
<path d="M212.558 132.177L170.295 159.077L179.356 173.313L287.312 104.599L261.969 64.783C254.449 52.9692 245.551 45.6449 235.273 42.8102C224.963 39.9261 214.841 41.6461 204.906 47.97C194.426 54.64 188.437 63.0712 186.937 73.2636C185.455 83.3751 188.599 94.5355 196.371 106.745L212.558 132.177ZM224.199 124.767L207.917 99.1871C203.072 91.5748 201.139 84.6094 202.118 78.2909C203.146 71.9408 207.046 66.6106 213.818 62.3003C220.244 58.2102 226.675 56.9647 233.111 58.5639C239.546 60.1632 245.087 64.4498 249.735 71.424L266.536 97.8197L224.199 124.767Z" fill="black"/>
<path d="M318.977 143H305.969V66.9219H318.977V143ZM304.914 46.7422C304.914 44.6328 305.547 42.8516 306.812 41.3984C308.125 39.9453 310.047 39.2188 312.578 39.2188C315.109 39.2188 317.031 39.9453 318.344 41.3984C319.656 42.8516 320.312 44.6328 320.312 46.7422C320.312 48.8516 319.656 50.6094 318.344 52.0156C317.031 53.4219 315.109 54.125 312.578 54.125C310.047 54.125 308.125 53.4219 306.812 52.0156C305.547 50.6094 304.914 48.8516 304.914 46.7422ZM386.828 135.477C381.766 141.43 374.336 144.406 364.539 144.406C356.43 144.406 350.242 142.062 345.977 137.375C341.758 132.641 339.625 125.656 339.578 116.422V66.9219H352.586V116.07C352.586 127.602 357.273 133.367 366.648 133.367C376.586 133.367 383.195 129.664 386.477 122.258V66.9219H399.484V143H387.109L386.828 135.477ZM434.852 102.922V143H421.352V40.625H459.109C470.312 40.625 479.078 43.4844 485.406 49.2031C491.781 54.9219 494.969 62.4922 494.969 71.9141C494.969 81.8516 491.852 89.5156 485.617 94.9062C479.43 100.25 470.547 102.922 458.969 102.922H434.852ZM434.852 91.8828H459.109C466.328 91.8828 471.859 90.1953 475.703 86.8203C479.547 83.3984 481.469 78.4766 481.469 72.0547C481.469 65.9609 479.547 61.0859 475.703 57.4297C471.859 53.7734 466.586 51.875 459.883 51.7344H434.852V91.8828ZM524.289 143H511.281V66.9219H524.289V143ZM510.227 46.7422C510.227 44.6328 510.859 42.8516 512.125 41.3984C513.438 39.9453 515.359 39.2188 517.891 39.2188C520.422 39.2188 522.344 39.9453 523.656 41.3984C524.969 42.8516 525.625 44.6328 525.625 46.7422C525.625 48.8516 524.969 50.6094 523.656 52.0156C522.344 53.4219 520.422 54.125 517.891 54.125C515.359 54.125 513.438 53.4219 512.125 52.0156C510.859 50.6094 510.227 48.8516 510.227 46.7422ZM592.141 135.477C587.078 141.43 579.648 144.406 569.852 144.406C561.742 144.406 555.555 142.062 551.289 137.375C547.07 132.641 544.938 125.656 544.891 116.422V66.9219H557.898V116.07C557.898 127.602 562.586 133.367 571.961 133.367C581.898 133.367 588.508 129.664 591.789 122.258V66.9219H604.797V143H592.422L592.141 135.477ZM685.234 125L709.492 66.9219H722.641L687.977 143H677.641L669.766 85.4844L642.344 143H632.008L623.781 66.9219H635.945L640.586 123.594L667.586 66.9219H677.852L685.234 125ZM761.945 144.406C751.633 144.406 743.242 141.031 736.773 134.281C730.305 127.484 727.07 118.414 727.07 107.07V104.68C727.07 97.1328 728.5 90.4062 731.359 84.5C734.266 78.5469 738.297 73.9062 743.453 70.5781C748.656 67.2031 754.281 65.5156 760.328 65.5156C770.219 65.5156 777.906 68.7734 783.391 75.2891C788.875 81.8047 791.617 91.1328 791.617 103.273V108.688H740.078C740.266 116.188 742.445 122.258 746.617 126.898C750.836 131.492 756.18 133.789 762.648 133.789C767.242 133.789 771.133 132.852 774.32 130.977C777.508 129.102 780.297 126.617 782.688 123.523L790.633 129.711C784.258 139.508 774.695 144.406 761.945 144.406ZM760.328 76.2031C755.078 76.2031 750.672 78.125 747.109 81.9688C743.547 85.7656 741.344 91.1094 740.5 98H778.609V97.0156C778.234 90.4062 776.453 85.2969 773.266 81.6875C770.078 78.0312 765.766 76.2031 760.328 76.2031ZM843.508 78.5938C841.539 78.2656 839.406 78.1016 837.109 78.1016C828.578 78.1016 822.789 81.7344 819.742 89V143H806.734V66.9219H819.391L819.602 75.7109C823.867 68.9141 829.914 65.5156 837.742 65.5156C840.273 65.5156 842.195 65.8438 843.508 66.5V78.5938Z" fill="black"/>
</svg>
