<svg width="82" height="103" viewBox="0 0 82 103" fill="none" xmlns="http://www.w3.org/2000/svg">
<path d="M1.3038 66.1511C-2.61297 66.6126 32.6373 62.4589 32.6373 62.4589" stroke="black" stroke-width="5"/>
<line x1="34.3022" y1="97.2383" x2="67.6047" y2="97.2383" stroke="black" stroke-width="5"/>
<line y1="-2.5" x2="13.0169" y2="-2.5" transform="matrix(0.511679 0.859177 -0.801428 0.598091 40.9626 88.5545)" stroke="black" stroke-width="5"/>
<line y1="-2.5" x2="13.0169" y2="-2.5" transform="matrix(0.511679 0.859177 -0.801428 0.598091 50.9536 88.5545)" stroke="black" stroke-width="5"/>
<path d="M9.33447 84.1414C68.0064 77.1712 66.781 73.3914 54.2837 47.5471" stroke="black" stroke-width="5"/>
<path d="M45.3333 56.4585C27.9672 62.878 20.8328 69.5974 12.0308 86.2821" stroke="black" stroke-width="5"/>
<line y1="-2.5" x2="20.0584" y2="-2.5" transform="matrix(0.830135 0.557563 -0.472411 0.881378 1 66.1869)" stroke="black" stroke-width="5"/>
<path d="M69.2698 45.6831C80.1424 91.6427 35.422 94.1499 20.9814 82.9626" stroke="black" stroke-width="5"/>
<path d="M51.127 41.0213L39.6469 49.8341L41.9222 54.1455L71.2469 31.6343L64.883 19.5758C62.9947 15.998 60.6983 13.8273 57.9936 13.0638C55.281 12.2853 52.5753 12.932 49.8764 15.0038C47.0299 17.1889 45.36 19.8697 44.8667 23.0461C44.3789 26.1972 45.1107 29.6215 47.0621 33.3192L51.127 41.0213ZM54.2891 38.594L50.2005 30.8469C48.9838 28.5415 48.5349 26.4039 48.8538 24.4342C49.1861 22.4542 50.272 20.7582 52.1115 19.3461C53.8571 18.0062 55.5774 17.548 57.2726 17.9716C58.9677 18.3951 60.4003 19.6618 61.5704 21.7717L65.7893 29.7657L54.2891 38.594Z" fill="black"/>
</svg>
