<svg width="48" height="48" viewBox="0 0 48 48" fill="none" xmlns="http://www.w3.org/2000/svg">
<g clip-path="url(#clip0)">
<path d="M46.7054 20.8777C46.7043 20.8766 46.7032 20.8755 46.7021 20.8744L27.1219 1.29492C26.2873 0.459961 25.1777 0 23.9974 0C22.8171 0 21.7074 0.459595 20.8725 1.29456L1.30254 20.8641C1.29595 20.8707 1.28936 20.8777 1.28276 20.8843C-0.431103 22.608 -0.428173 25.4048 1.29119 27.1241C2.07671 27.91 3.11419 28.3652 4.22344 28.4128C4.26848 28.4172 4.31389 28.4194 4.35967 28.4194H5.14006V42.8287C5.14006 45.6801 7.46001 48 10.3121 48H17.9725C18.7488 48 19.3787 47.3705 19.3787 46.5938V35.2969C19.3787 33.9957 20.4371 32.9374 21.7382 32.9374H26.2565C27.5577 32.9374 28.616 33.9957 28.616 35.2969V46.5938C28.616 47.3705 29.2455 48 30.0223 48H37.6827C40.5347 48 42.8547 45.6801 42.8547 42.8287V28.4194H43.5783C44.7582 28.4194 45.8678 27.9598 46.7032 27.1249C48.4244 25.4026 48.4251 22.6011 46.7054 20.8777Z" fill="black"/>
</g>
<defs>
<clipPath id="clip0">
<rect width="48" height="48" fill="white"/>
</clipPath>
</defs>
</svg>
