<svg width="32" height="32" viewBox="0 0 32 32" fill="none" xmlns="http://www.w3.org/2000/svg">
<path d="M28.3824 1.00157H3.61927C1.62319 1.00157 0 2.62423 0 4.62266V27.3815C0 29.3776 1.62319 30.9985 3.61927 30.9985H28.3823C30.3784 30.9985 31.9999 29.3776 31.9999 27.3815V4.62266C32 2.62423 30.3785 1.00157 28.3824 1.00157ZM20.6928 6.38682C22.6231 6.38682 24.1886 7.95238 24.1886 9.88258C24.1886 11.8128 22.623 13.3783 20.6928 13.3783C18.762 13.3783 17.1971 11.8128 17.1971 9.88258C17.1971 7.95238 18.762 6.38682 20.6928 6.38682ZM27.2474 27.653H15.9997H5.25306C4.28759 27.653 3.85761 26.9544 4.29284 26.0926L10.2922 14.2098C10.7269 13.3481 11.5554 13.2712 12.1421 14.0379L18.1746 21.9215C18.7613 22.6883 19.7868 22.7535 20.4655 22.0665L21.9413 20.5721C22.6195 19.8851 23.6187 19.9702 24.1722 20.7608L27.9937 26.2196C28.5461 27.0114 28.2129 27.653 27.2474 27.653Z" fill="#010002"/>
</svg>
