<svg width="32" height="32" viewBox="0 0 32 32" fill="none" xmlns="http://www.w3.org/2000/svg">
<path d="M16 0C7.16343 0 0 7.16343 0 16C0 24.8366 7.16343 32 16 32C24.8366 32 32 24.8366 32 16C32 7.16343 24.8366 0 16 0ZM21.346 10.3023C22.7055 10.3023 23.8076 11.4044 23.8076 12.7639C23.8076 14.1233 22.7055 15.2254 21.346 15.2254C19.9866 15.2254 18.8845 14.1233 18.8845 12.7639C18.8845 11.4044 19.9866 10.3023 21.346 10.3023ZM10.654 10.3023C12.0134 10.3023 13.1155 11.4044 13.1155 12.7639C13.1155 14.1233 12.0134 15.2254 10.654 15.2254C9.29449 15.2254 8.19242 14.1233 8.19242 12.7639C8.19242 11.4044 9.29449 10.3023 10.654 10.3023ZM16 26.022C11.821 26.022 8.04072 23.3843 6.59327 19.4585L8.57291 18.7286C9.71604 21.829 12.7008 23.9121 16 23.9121C19.2992 23.9121 22.284 21.829 23.4271 18.7286L25.4067 19.4585C23.9593 23.3843 20.179 26.022 16 26.022Z" fill="black"/>
</svg>
