<svg width="32" height="32" viewBox="0 0 32 32" fill="none" xmlns="http://www.w3.org/2000/svg">
<path d="M19.5248 12.4728C19.1458 12.0915 18.7255 11.7535 18.2717 11.465C17.0699 10.6955 15.6728 10.2865 14.2458 10.2865C12.2651 10.2828 10.3648 11.0698 8.96671 12.4728L2.18393 19.2609C0.788177 20.6594 0.00369273 22.5541 0.00244295 24.5298C-0.000181576 28.6529 3.33997 31.9973 7.46298 31.9999C9.44062 32.0068 11.3391 31.2236 12.7367 29.8243L18.3357 24.2253C18.4374 24.1245 18.4942 23.9869 18.4934 23.8437C18.4917 23.5491 18.2516 23.3118 17.9571 23.3135H17.7438C16.574 23.3176 15.4147 23.093 14.3311 22.6523C14.1315 22.5701 13.902 22.6165 13.7499 22.7696L9.72395 26.8009C8.4738 28.051 6.44691 28.051 5.19676 26.8009C3.94661 25.5507 3.94661 23.5238 5.19676 22.2737L12.0062 15.4696C13.2554 14.222 15.2789 14.222 16.5281 15.4696C17.3699 16.2619 18.6831 16.2619 19.5249 15.4696C19.8871 15.1071 20.1066 14.6263 20.1434 14.1152C20.1824 13.5043 19.9571 12.9061 19.5248 12.4728Z" fill="black"/>
<path d="M29.8108 2.18679C26.8953 -0.728747 22.1682 -0.728747 19.2527 2.18679L13.659 7.7751C13.5054 7.92945 13.4611 8.16159 13.547 8.36168C13.6319 8.56233 13.8304 8.69112 14.0482 8.68694H14.2455C15.4139 8.68481 16.5714 8.91121 17.6529 9.3535C17.8526 9.43568 18.082 9.38931 18.2341 9.23621L22.2494 5.22625C23.4996 3.9761 25.5264 3.9761 26.7766 5.22625C28.0268 6.4764 28.0268 8.50328 26.7766 9.75343L21.7748 14.7498L21.7321 14.7978L19.9831 16.5362C18.734 17.7838 16.7104 17.7838 15.4612 16.5362C14.6194 15.7439 13.3063 15.7439 12.4645 16.5362C12.1 16.9015 11.8802 17.3864 11.8459 17.9013C11.8069 18.5121 12.0322 19.1103 12.4645 19.5437C13.0817 20.1635 13.8038 20.669 14.5974 21.0367C14.7094 21.09 14.8214 21.1327 14.9333 21.1807C15.0453 21.2287 15.1626 21.266 15.2746 21.3087C15.3866 21.3513 15.5039 21.3887 15.6158 21.4207L15.9305 21.5059C16.1437 21.5592 16.3571 21.6019 16.5757 21.6392C16.839 21.6784 17.1042 21.7033 17.3702 21.7139H17.7435H17.7755L18.0954 21.6766C18.2127 21.6713 18.3354 21.6446 18.474 21.6446H18.6553L19.0232 21.5913L19.1939 21.5593L19.5031 21.4953H19.5618C20.8717 21.1663 22.0677 20.4881 23.0225 19.533L29.8106 12.7449C32.7263 9.82936 32.7263 5.10233 29.8108 2.18679Z" fill="black"/>
</svg>
