<svg width="32" height="32" viewBox="0 0 32 32" fill="none" xmlns="http://www.w3.org/2000/svg">
<g clip-path="url(#clip0)">
<path d="M3.33331 14C1.496 14 0 15.496 0 17.3333V28C0 29.8373 1.496 31.3333 3.33331 31.3333H7.33331C8.084 31.3333 8.77462 31.08 9.33331 30.6586V14H3.33331Z" fill="black"/>
<path d="M32.0001 19C32.0001 18.1987 31.6827 17.452 31.1321 16.9013C31.7547 16.22 32.0721 15.3066 31.9854 14.356C31.8294 12.6613 30.3027 11.3333 28.5081 11.3333H20.2721C20.6801 10.0946 21.3334 7.824 21.3334 6C21.3334 3.108 18.8761 0.666687 17.3334 0.666687C15.9481 0.666687 14.9587 1.44669 14.9161 1.47869C14.7587 1.60537 14.6667 1.79737 14.6667 2V6.52131L10.8267 14.84L10.6667 14.9213V29.212C11.7521 29.724 13.1254 30 14.0001 30H26.2387C27.6907 30 28.9614 29.0213 29.2601 27.6707C29.4134 26.976 29.3241 26.276 29.0187 25.668C30.0041 25.172 30.6667 24.1573 30.6667 23C30.6667 22.528 30.5587 22.076 30.3534 21.6667C31.3387 21.1707 32.0001 20.156 32.0001 19Z" fill="black"/>
</g>
<defs>
<clipPath id="clip0">
<rect width="32" height="32" fill="white"/>
</clipPath>
</defs>
</svg>
