<svg width="30" height="32" viewBox="0 0 30 32" fill="none" xmlns="http://www.w3.org/2000/svg">
<path fill-rule="evenodd" clip-rule="evenodd" d="M18.0001 24C24.6275 24 30.0001 18.6274 30.0001 12C30.0001 5.37258 24.6275 0 18.0001 0C11.3726 0 6.00005 5.37258 6.00005 12C6.00005 15.1753 7.23331 18.0625 9.24697 20.2088L0 29.0705L2.76762 31.9584L12.4752 22.6553C14.1289 23.5145 16.0078 24 18.0001 24ZM18.0001 20.2967C13.4179 20.2967 9.7034 16.5821 9.7034 12C9.7034 7.41788 13.4179 3.70334 18.0001 3.70334C22.5822 3.70334 26.2967 7.41788 26.2967 12C26.2967 16.5821 22.5822 20.2967 18.0001 20.2967Z" fill="black" fill-opacity="0.6"/>
</svg>
