<svg width="30" height="21" viewBox="0 0 30 21" fill="none" xmlns="http://www.w3.org/2000/svg">
<path fill-rule="evenodd" clip-rule="evenodd" d="M15 0.666656C8.33331 0.666656 2.63998 4.81332 0.333313 10.6667C2.63998 16.52 8.33331 20.6667 15 20.6667C21.6666 20.6667 27.36 16.52 29.6666 10.6667C27.36 4.81332 21.6666 0.666656 15 0.666656ZM15 17.3333C11.32 17.3333 8.33331 14.3467 8.33331 10.6667C8.33331 6.98666 11.32 3.99999 15 3.99999C18.68 3.99999 21.6666 6.98666 21.6666 10.6667C21.6666 14.3467 18.68 17.3333 15 17.3333ZM15 6.66666C12.7866 6.66666 11 8.45332 11 10.6667C11 12.88 12.7866 14.6667 15 14.6667C17.2133 14.6667 19 12.88 19 10.6667C19 8.45332 17.2133 6.66666 15 6.66666Z" fill="black" fill-opacity="0.6"/>
</svg>
